Coordinates
nRows=5
nColumns=38

# SIMM Motion File Header:
name Coordinates
datacolumns 38
datarows 5
otherdata 1
range 2.13399999999999990000 2.13799999999999990000

Units are S.I. units (second, meters, Newtons, ...)
Angles are in degrees.

endheader
time	pelvis_tilt	pelvis_list	pelvis_rotation	pelvis_tx	pelvis_ty	pelvis_tz	hip_flexion_r	hip_adduction_r	hip_rotation_r	knee_angle_r	ankle_angle_r	subtalar_angle_r	mtp_angle_r	hip_flexion_l	hip_adduction_l	hip_rotation_l	knee_angle_l	ankle_angle_l	subtalar_angle_l	mtp_angle_l	lumbar_extension	lumbar_bending	lumbar_rotation	arm_flex_r	arm_add_r	arm_rot_r	elbow_flex_r	pro_sup_r	wrist_flex_r	wrist_dev_r	arm_flex_l	arm_add_l	arm_rot_l	elbow_flex_l	pro_sup_l	wrist_flex_l	wrist_dev_l
      2.13399999999999990000	    -12.29392304072389000000	      0.28132314354954935000	     -3.14708065844987490000	      0.94894824561803448000	      0.98568107680857897000	     -0.34312895590080555000	     12.61817771680312500000	      6.65466649814146200000	      3.26771971477083860000	    -29.90930968291521500000	     20.52217961707209400000	      0.00000000000000899410	      0.00000000000001697498	     47.18876407999924500000	     -1.07953467692339440000	     -0.78789301183994753000	    -86.60012473489341300000	      5.79668016041693600000	      0.00000000000000923543	     -0.00000000000000748615	     -2.59812277794540190000	      2.00119962534827420000	     12.40584062721261900000	    -15.73188782484691300000	    -23.82480630074922300000	     -9.15432832899044160000	    107.62370836430546000000	    106.30349320356079000000	     -0.00000000000000372736	      0.00000000000000571646	    -37.37875721422705800000	    -16.06645640745658800000	     -3.62302024369293330000	    104.98026590768120000000	    101.44740335682688000000	      0.00000000000000088762	     -0.00000000000000172707
      2.13499999999999980000	    -12.28309604611956400000	      0.34518258680203734000	     -3.11902313471946480000	      0.94908424926057633000	      0.98630853746085057000	     -0.34306602442613970000	     12.25249943809847700000	      6.56714012036114880000	      3.27391863808581760000	    -29.57865432296775100000	     20.23503195787678500000	      0.00000000000000912572	      0.00000000000001705274	     47.24424485921895200000	     -1.01995849821565440000	     -0.82215637985547341000	    -86.21724865937301300000	      5.81941503902918280000	      0.00000000000000937951	     -0.00000000000000753796	     -2.58346744522565520000	      1.90592496485260690000	     12.46777771707807700000	    -15.66454730117757100000	    -23.78753333634376000000	     -9.11563685622842530000	    107.85520971971644000000	    106.40133927050999000000	     -0.00000000000000378634	      0.00000000000000579771	    -37.52049893928722200000	    -16.08367348874526600000	     -3.68386990806660020000	    105.18820569099564000000	    101.44984311930880000000	      0.00000000000000088018	     -0.00000000000000176924
      2.13600000000000010000	    -12.27156169712941400000	      0.40923999547286249000	     -3.08949726321152960000	      0.94922387610022041000	      0.98694240047414938000	     -0.34300293555624944000	     11.88735948802182000000	      6.47893341923860430000	      3.27659646371194180000	    -29.24889330318272200000	     19.93919368647172900000	      0.00000000000000924463	      0.00000000000001716189	     47.29585124778316200000	     -0.96018059380429099000	     -0.85729505265417305000	    -85.82954466597145400000	      5.84234916319949530000	      0.00000000000000952763	     -0.00000000000000757457	     -2.56944817354291600000	      1.80990519381485710000	     12.52654762860617900000	    -15.59723025424520100000	    -23.74971296315514000000	     -9.07546023476059640000	    108.08629576601142000000	    106.50189963690084000000	     -0.00000000000000384523	      0.00000000000000588124	    -37.66288931613436100000	    -16.10007375762054200000	     -3.74702639611040180000	    105.39608451162111000000	    101.45587754999556000000	      0.00000000000000086744	     -0.00000000000000181200
      2.13700000000000000000	    -12.25934342313262700000	      0.47348344436740730000	     -3.05851768974859310000	      0.94936693194089261000	      0.98758242120875062000	     -0.34293973878195966000	     11.52291373262713100000	      6.39008414847839660000	      3.27566135567727160000	    -28.92024200632223000000	     19.63474464907384800000	      0.00000000000000938987	      0.00000000000001727605	     47.34362520969952500000	     -0.90019848053944640000	     -0.89331740535605120000	    -85.43705419595237100000	      5.86548976955230920000	      0.00000000000000967943	     -0.00000000000000761461	     -2.55608152222141130000	      1.71316791975884080000	     12.58218578361093700000	    -15.52996553335198000000	    -23.71136999032558300000	     -9.03381257331129990000	    108.31695926258172000000	    106.60498466869296000000	     -0.00000000000000390408	      0.00000000000000596416	    -37.80585849178197600000	    -16.11565452571000600000	     -3.81240856228848560000	    105.60376478798774000000	    101.46518232665271000000	      0.00000000000000084937	     -0.00000000000000185457
      2.13799999999999990000	    -12.24646652747243000000	      0.53790009035129915000	     -3.02610151369044810000	      0.94951322475596800000	      0.98822835292406619000	     -0.34287648459388959000	     11.15931647299331300000	      6.30063233880476940000	      3.27102626140668650000	    -28.59290979221055200000	     19.32177181196499300000	      0.00000000000000958704	      0.00000000000001737970	     47.38761011222673900000	     -0.84000867517363265000	     -0.93023012280610218000	    -85.03981759375082600000	      5.88884524101171800000	      0.00000000000000983997	     -0.00000000000000766553	     -2.54338134981427460000	      1.61574269251636250000	     12.63473285060805300000	    -15.46278678855037300000	    -23.67253069726729100000	     -8.99071298425542410000	    108.54719912494737000000	    106.71040274446803000000	     -0.00000000000000396276	      0.00000000000000605517	    -37.94933700516521900000	    -16.13041379382115500000	     -3.87993137886729930000	    105.81111641229447000000	    101.47743482744694000000	      0.00000000000000082982	     -0.00000000000000189743
